<mxfile host="65bd71144e">
    <diagram id="XGkMTTyHodNcPTMJTelv" name="Page-1">
        <mxGraphModel dx="1614" dy="790" grid="1" gridSize="10" guides="1" tooltips="1" connect="1" arrows="1" fold="1" page="1" pageScale="1" pageWidth="1100" pageHeight="850" math="0" shadow="0">
            <root>
                <mxCell id="0"/>
                <mxCell id="1" parent="0"/>
                <mxCell id="3" value="&lt;div style=&quot;color: rgb(255 , 255 , 255) ; font-family: &amp;#34;consolas&amp;#34; , &amp;#34;courier new&amp;#34; , monospace ; font-size: 14px&quot;&gt;Вычислить число π c заданной точностью d&lt;/div&gt;&lt;div style=&quot;color: rgb(255 , 255 , 255) ; font-family: &amp;#34;consolas&amp;#34; , &amp;#34;courier new&amp;#34; , monospace ; font-size: 14px&quot;&gt;Пример: при d = 0.001, pi = 3.141. 10^-1 &amp;lt;= d &amp;lt;= 10^-10&lt;/div&gt;&lt;div style=&quot;color: rgb(255 , 255 , 255) ; font-family: &amp;#34;consolas&amp;#34; , &amp;#34;courier new&amp;#34; , monospace ; font-size: 14px&quot;&gt;−1 ≤ 𝑑 ≤ 10&lt;/div&gt;&lt;div style=&quot;color: rgb(255 , 255 , 255) ; font-family: &amp;#34;consolas&amp;#34; , &amp;#34;courier new&amp;#34; , monospace ; font-size: 14px&quot;&gt;−10&lt;/div&gt;" style="rounded=1;whiteSpace=wrap;html=1;" vertex="1" parent="1">
                    <mxGeometry x="10" y="10" width="200" height="120" as="geometry"/>
                </mxCell>
                <mxCell id="6" value="" style="edgeStyle=none;html=1;" edge="1" parent="1" source="4" target="5">
                    <mxGeometry relative="1" as="geometry"/>
                </mxCell>
                <mxCell id="4" value="Start" style="ellipse;whiteSpace=wrap;html=1;" vertex="1" parent="1">
                    <mxGeometry x="720" y="10" width="120" height="60" as="geometry"/>
                </mxCell>
                <mxCell id="22" value="" style="edgeStyle=none;html=1;" edge="1" parent="1" source="5" target="7">
                    <mxGeometry relative="1" as="geometry"/>
                </mxCell>
                <mxCell id="5" value="d = 0.001&lt;br&gt;test = 0.00000000&lt;br&gt;one = 1&lt;br&gt;col_count = -1" style="whiteSpace=wrap;html=1;" vertex="1" parent="1">
                    <mxGeometry x="720" y="150" width="120" height="60" as="geometry"/>
                </mxCell>
                <mxCell id="9" value="True" style="edgeStyle=none;html=1;" edge="1" parent="1" source="7" target="8">
                    <mxGeometry relative="1" as="geometry"/>
                </mxCell>
                <mxCell id="24" value="False" style="edgeStyle=none;html=1;entryX=1;entryY=0.5;entryDx=0;entryDy=0;" edge="1" parent="1" source="7" target="25">
                    <mxGeometry relative="1" as="geometry">
                        <mxPoint x="680" y="320" as="targetPoint"/>
                    </mxGeometry>
                </mxCell>
                <mxCell id="7" value="i &amp;lt; d" style="rhombus;whiteSpace=wrap;html=1;" vertex="1" parent="1">
                    <mxGeometry x="740" y="280" width="80" height="80" as="geometry"/>
                </mxCell>
                <mxCell id="12" value="True" style="edgeStyle=none;html=1;entryX=1;entryY=0.5;entryDx=0;entryDy=0;" edge="1" parent="1" source="8" target="7">
                    <mxGeometry relative="1" as="geometry">
                        <Array as="points">
                            <mxPoint x="910" y="480"/>
                            <mxPoint x="910" y="320"/>
                        </Array>
                    </mxGeometry>
                </mxCell>
                <mxCell id="16" value="False" style="edgeStyle=none;html=1;" edge="1" parent="1" source="8" target="15">
                    <mxGeometry relative="1" as="geometry"/>
                </mxCell>
                <mxCell id="8" value="i == test" style="rhombus;whiteSpace=wrap;html=1;" vertex="1" parent="1">
                    <mxGeometry x="740" y="440" width="80" height="80" as="geometry"/>
                </mxCell>
                <mxCell id="21" value="False" style="edgeStyle=none;html=1;" edge="1" parent="1" source="15" target="20">
                    <mxGeometry relative="1" as="geometry"/>
                </mxCell>
                <mxCell id="23" value="True" style="edgeStyle=none;html=1;" edge="1" parent="1" source="15">
                    <mxGeometry relative="1" as="geometry">
                        <mxPoint x="890" y="480" as="targetPoint"/>
                        <Array as="points">
                            <mxPoint x="620" y="600"/>
                            <mxPoint x="890" y="600"/>
                        </Array>
                    </mxGeometry>
                </mxCell>
                <mxCell id="15" value="i == one" style="rhombus;whiteSpace=wrap;html=1;" vertex="1" parent="1">
                    <mxGeometry x="580" y="440" width="80" height="80" as="geometry"/>
                </mxCell>
                <mxCell id="20" value="print incorrect" style="shape=document;whiteSpace=wrap;html=1;boundedLbl=1;" vertex="1" parent="1">
                    <mxGeometry x="340" y="440" width="120" height="80" as="geometry"/>
                </mxCell>
                <mxCell id="27" value="True" style="edgeStyle=none;html=1;" edge="1" parent="1" source="25" target="26">
                    <mxGeometry relative="1" as="geometry"/>
                </mxCell>
                <mxCell id="29" value="False" style="edgeStyle=none;html=1;" edge="1" parent="1" source="25" target="28">
                    <mxGeometry relative="1" as="geometry"/>
                </mxCell>
                <mxCell id="25" value="col_count &amp;gt; one &amp;amp; col_counter &amp;gt; 10&amp;nbsp;" style="rhombus;whiteSpace=wrap;html=1;" vertex="1" parent="1">
                    <mxGeometry x="470" y="262.5" width="140" height="115" as="geometry"/>
                </mxCell>
                <mxCell id="26" value="print pi, count" style="shape=document;whiteSpace=wrap;html=1;boundedLbl=1;" vertex="1" parent="1">
                    <mxGeometry x="260" y="280" width="120" height="80" as="geometry"/>
                </mxCell>
                <mxCell id="28" value="print incorrect" style="shape=document;whiteSpace=wrap;html=1;boundedLbl=1;" vertex="1" parent="1">
                    <mxGeometry x="480" y="85" width="120" height="80" as="geometry"/>
                </mxCell>
            </root>
        </mxGraphModel>
    </diagram>
</mxfile>